<?xml version="1.0" encoding="UTF-8" standalone="no"?>
<!-- Created with Inkscape (http://www.inkscape.org/) -->

<svg
   xmlns:dc="http://purl.org/dc/elements/1.1/"
   xmlns:cc="http://creativecommons.org/ns#"
   xmlns:rdf="http://www.w3.org/1999/02/22-rdf-syntax-ns#"
   xmlns:svg="http://www.w3.org/2000/svg"
   xmlns="http://www.w3.org/2000/svg"
   xmlns:sodipodi="http://sodipodi.sourceforge.net/DTD/sodipodi-0.dtd"
   xmlns:inkscape="http://www.inkscape.org/namespaces/inkscape"
   width="744.09448819"
   height="1052.3622047"
   id="svg2"
   version="1.1"
   inkscape:version="0.48.4 r9939"
   sodipodi:docname="render2.svg">
  <defs
     id="defs4" />
  <sodipodi:namedview
     id="base"
     pagecolor="#ffffff"
     bordercolor="#666666"
     borderopacity="1.0"
     inkscape:pageopacity="0.0"
     inkscape:pageshadow="2"
     inkscape:zoom="2.8284271"
     inkscape:cx="179.02279"
     inkscape:cy="741.95757"
     inkscape:document-units="px"
     inkscape:current-layer="layer1"
     showgrid="false"
     inkscape:window-width="1855"
     inkscape:window-height="1056"
     inkscape:window-x="65"
     inkscape:window-y="24"
     inkscape:window-maximized="1" />
  <metadata
     id="metadata7">
    <rdf:rdf>
      <cc:work
         rdf:about="">
        <dc:format>
     image/svg+xml
    </dc:format>
        <dc:type
           rdf:resource="http://purl.org/dc/dcmitype/StillImage" />
        <dc:title />
      </cc:work>
    </rdf:rdf>
    <rdf:RDF>
      <cc:Work
         rdf:about="">
        <dc:format>image/svg+xml</dc:format>
        <dc:type
           rdf:resource="http://purl.org/dc/dcmitype/StillImage" />
        <dc:title />
      </cc:Work>
    </rdf:RDF>
  </metadata>
  <g
     inkscape:label="Layer 1"
     inkscape:groupmode="layer"
     id="layer1">
    <path
       style="fill:none;stroke:#808080;stroke-width:1;stroke-linecap:butt;stroke-linejoin:miter;stroke-opacity:1;stroke-miterlimit:4;stroke-dasharray:none"
       d="m 22.223356,31.097959 703.066174,0"
       id="path2985"
       inkscape:connector-curvature="0" />
    <path
       inkscape:connector-curvature="0"
       id="path3755"
       d="m 22.223356,164.43809 703.066174,0"
       style="fill:none;stroke:#808080;stroke-width:1;stroke-linecap:butt;stroke-linejoin:miter;stroke-miterlimit:4;stroke-opacity:1;stroke-dasharray:none" />
    <text
       xml:space="preserve"
       style="font-size:31.65916443px;font-style:normal;font-variant:normal;font-weight:normal;font-stretch:normal;line-height:125%;letter-spacing:0px;word-spacing:0px;fill:#000000;fill-opacity:1;stroke:none;font-family:Libre Baskerville;-inkscape-font-specification:Libre Baskerville"
       x="42.426449"
       y="84.295677"
       id="text3757"
       sodipodi:linespacing="125%"><tspan
         sodipodi:role="line"
         id="tspan3759"
         x="42.426449"
         y="84.295677"
         style="font-style:normal;font-variant:normal;font-weight:normal;font-stretch:normal;font-family:Libre Baskerville;-inkscape-font-specification:Libre Baskerville">
    Fills
   </tspan></text>
    <path
       sodipodi:type="arc"
       style="fill:#ffdd55;stroke:none"
       id="path2994"
       sodipodi:cx="100.0051"
       sodipodi:cy="99.78833"
       sodipodi:rx="45.456863"
       sodipodi:ry="45.456863"
       d="m 145.46196,99.78833 a 45.456863,45.456863 0 1 1 -90.913727,0 45.456863,45.456863 0 1 1 90.913727,0 z"
       transform="matrix(0.42212218,0,0,0.42212218,47.383436,77.351451)" />
    <path
       transform="matrix(0.42212218,0,0,0.42212218,112.94364,77.351451)"
       d="m 145.46196,99.78833 a 45.456863,45.456863 0 1 1 -90.913727,0 45.456863,45.456863 0 1 1 90.913727,0 z"
       sodipodi:ry="45.456863"
       sodipodi:rx="45.456863"
       sodipodi:cy="99.78833"
       sodipodi:cx="100.0051"
       id="path2996"
       style="fill:#ff6600;stroke:none"
       sodipodi:type="arc" />
    <path
       sodipodi:type="arc"
       style="fill:#d35f5f;stroke:none"
       id="path2998"
       sodipodi:cx="100.0051"
       sodipodi:cy="99.78833"
       sodipodi:rx="45.456863"
       sodipodi:ry="45.456863"
       d="m 145.46196,99.78833 a 45.456863,45.456863 0 1 1 -90.913727,0 45.456863,45.456863 0 1 1 90.913727,0 z"
       transform="matrix(0.42212218,0,0,0.42212218,178.50383,77.351451)" />
    <path
       style="fill:none;stroke:#808080;stroke-width:1;stroke-linecap:butt;stroke-linejoin:miter;stroke-miterlimit:4;stroke-opacity:1;stroke-dasharray:none"
       d="m 22.223356,296.76807 703.066174,0"
       id="path3014"
       inkscape:connector-curvature="0" />
    <text
       sodipodi:linespacing="125%"
       id="text3016"
       y="216.62566"
       x="42.426449"
       style="font-size:31.65916443px;font-style:normal;font-variant:normal;font-weight:normal;font-stretch:normal;line-height:125%;letter-spacing:0px;word-spacing:0px;fill:#000000;fill-opacity:1;stroke:none;font-family:Libre Baskerville;-inkscape-font-specification:Libre Baskerville"
       xml:space="preserve"><tspan
         style="font-style:normal;font-variant:normal;font-weight:normal;font-stretch:normal;font-family:Libre Baskerville;-inkscape-font-specification:Libre Baskerville"
         y="216.62566"
         x="42.426449"
         id="tspan3018"
         sodipodi:role="line">
    Strokes
   </tspan></text>
    <path
       transform="matrix(0.13323328,0,0,0.42212218,76.273798,209.68143)"
       d="m 145.46196,99.78833 a 45.456863,45.456863 0 1 1 -90.913727,0 45.456863,45.456863 0 1 1 90.913727,0 z"
       sodipodi:ry="45.456863"
       sodipodi:rx="45.456863"
       sodipodi:cy="99.78833"
       sodipodi:cx="100.0051"
       id="path3020"
       style="fill:#ffdd55;stroke:none"
       sodipodi:type="arc" />
    <path
       sodipodi:type="arc"
       style="fill:#ddff55;stroke:none"
       id="path3022"
       sodipodi:cx="100.0051"
       sodipodi:cy="99.78833"
       sodipodi:rx="45.456863"
       sodipodi:ry="45.456863"
       d="m 145.46196,99.78833 a 45.456863,45.456863 0 1 1 -90.913727,0 45.456863,45.456863 0 1 1 90.913727,0 z"
       transform="matrix(0.19989995,0,0,0.42212218,135.167,209.68143)" />
    <path
       transform="matrix(0.42212218,0,0,0.42212218,178.50383,209.68143)"
       d="m 145.46196,99.78833 a 45.456863,45.456863 0 1 1 -90.913727,0 45.456863,45.456863 0 1 1 90.913727,0 z"
       sodipodi:ry="45.456863"
       sodipodi:rx="45.456863"
       sodipodi:cy="99.78833"
       sodipodi:cx="100.0051"
       id="path3024"
       style="fill:#88aa00;stroke:none"
       sodipodi:type="arc" />
    <g
       id="g40119"
       transform="matrix(48,0,0,48,145.49852,365.76228)">
      <circle
         cx="0.5"
         cy="0.5"
         r="0.5"
         z-index="9999992"
         id="circle$whichCircle.index"
         d="M 1,0.5 C 1,0.77614237 0.77614237,1 0.5,1 0.22385763,1 0,0.77614237 0,0.5 0,0.22385763 0.22385763,0 0.5,0 0.77614237,0 1,0.22385763 1,0.5 z"
         sodipodi:cx="0.5"
         sodipodi:cy="0.5"
         sodipodi:rx="0.5"
         sodipodi:ry="0.5"
         style="opacity:0.5;fill:#ffa500" />
      <circle
         cx="0.375"
         cy="0.5"
         r="0.375"
         z-index="9999993"
         id="circle40122"
         d="M 0.75,0.5 C 0.75,0.70710678 0.58210678,0.875 0.375,0.875 0.16789322,0.875 0,0.70710678 0,0.5 0,0.29289322 0.16789322,0.125 0.375,0.125 0.58210678,0.125 0.75,0.29289322 0.75,0.5 z"
         sodipodi:cx="0.375"
         sodipodi:cy="0.5"
         sodipodi:rx="0.375"
         sodipodi:ry="0.375"
         style="opacity:0.5;fill:#ff00ff" />
      <circle
         cx="0.75"
         cy="0.5"
         r="0.25"
         z-index="9999994"
         id="circle40124"
         d="M 1,0.5 C 1,0.63807119 0.88807119,0.75 0.75,0.75 0.61192881,0.75 0.5,0.63807119 0.5,0.5 0.5,0.36192881 0.61192881,0.25 0.75,0.25 0.88807119,0.25 1,0.36192881 1,0.5 z"
         sodipodi:cx="0.75"
         sodipodi:cy="0.5"
         sodipodi:rx="0.25"
         sodipodi:ry="0.25"
         style="opacity:0.5;fill:#0000ff" />
      <circle
         cx="0.25"
         cy="0.5"
         r="0.25"
         z-index="9999995"
         id="circle40126"
         d="M 0.5,0.5 C 0.5,0.63807119 0.38807119,0.75 0.25,0.75 0.11192881,0.75 0,0.63807119 0,0.5 0,0.36192881 0.11192881,0.25 0.25,0.25 0.38807119,0.25 0.5,0.36192881 0.5,0.5 z"
         sodipodi:cx="0.25"
         sodipodi:cy="0.5"
         sodipodi:rx="0.25"
         sodipodi:ry="0.25"
         style="opacity:0.5;fill:#ffa500" />
      <circle
         cx="0.875"
         cy="0.5"
         r="0.125"
         z-index="9999996"
         id="circle40128"
         d="M 1,0.5 C 1,0.56903559 0.94403559,0.625 0.875,0.625 0.80596441,0.625 0.75,0.56903559 0.75,0.5 0.75,0.43096441 0.80596441,0.375 0.875,0.375 0.94403559,0.375 1,0.43096441 1,0.5 z"
         sodipodi:cx="0.875"
         sodipodi:cy="0.5"
         sodipodi:rx="0.125"
         sodipodi:ry="0.125"
         style="opacity:0.5;fill:#ff00ff" />
      <circle
         cx="0.625"
         cy="0.5"
         r="0.125"
         z-index="9999997"
         id="circle40130"
         d="m 0.75,0.5 c 0,0.0690356 -0.0559644,0.125 -0.125,0.125 C 0.55596441,0.625 0.5,0.56903559 0.5,0.5 c 0,-0.0690356 0.0559644,-0.125 0.125,-0.125 0.0690356,0 0.125,0.0559644 0.125,0.125 z"
         sodipodi:cx="0.625"
         sodipodi:cy="0.5"
         sodipodi:rx="0.125"
         sodipodi:ry="0.125"
         style="opacity:0.5;fill:#0000ff" />
      <circle
         cx="0.375"
         cy="0.5"
         r="0.125"
         z-index="9999998"
         id="circle40132"
         d="m 0.5,0.5 c 0,0.0690356 -0.0559644,0.125 -0.125,0.125 -0.0690356,0 -0.125,-0.0559644 -0.125,-0.125 0,-0.0690356 0.0559644,-0.125 0.125,-0.125 0.0690356,0 0.125,0.0559644 0.125,0.125 z"
         sodipodi:cx="0.375"
         sodipodi:cy="0.5"
         sodipodi:rx="0.125"
         sodipodi:ry="0.125"
         style="opacity:0.5;fill:#ffa500" />
      <circle
         cx="0.125"
         cy="0.5"
         r="0.125"
         z-index="9999999"
         id="circle40134"
         d="m 0.25,0.5 c 0,0.0690356 -0.0559644,0.125 -0.125,0.125 C 0.05596441,0.625 0,0.56903559 0,0.5 0,0.43096441 0.05596441,0.375 0.125,0.375 c 0.0690356,0 0.125,0.0559644 0.125,0.125 z"
         sodipodi:cx="0.125"
         sodipodi:cy="0.5"
         sodipodi:rx="0.125"
         sodipodi:ry="0.125"
         style="opacity:0.5;fill:#ff00ff" />
    </g>
  </g>
</svg>
